<?xml version="1.0" encoding="UTF-8"?>
<svg xmlns="http://www.w3.org/2000/svg"
     xmlns:xlink="http://www.w3.org/1999/xlink"
     viewBox="0 0 960 920" width="960" height="920"
     style="background:#FFFFFF">
<defs>
  <marker id="ah" markerWidth="10" markerHeight="7" refX="9" refY="3.5" orient="auto" markerUnits="strokeWidth">
    <polygon points="0 0, 10 3.5, 0 7" fill="#374151"/>
  </marker>
  <marker id="ah-red" markerWidth="10" markerHeight="7" refX="9" refY="3.5" orient="auto" markerUnits="strokeWidth">
    <polygon points="0 0, 10 3.5, 0 7" fill="#DC2626"/>
  </marker>
  <marker id="ah-green" markerWidth="10" markerHeight="7" refX="9" refY="3.5" orient="auto" markerUnits="strokeWidth">
    <polygon points="0 0, 10 3.5, 0 7" fill="#059669"/>
  </marker>
  <marker id="ah-yellow" markerWidth="10" markerHeight="7" refX="9" refY="3.5" orient="auto" markerUnits="strokeWidth">
    <polygon points="0 0, 10 3.5, 0 7" fill="#D97706"/>
  </marker>
  <marker id="ah-purple" markerWidth="10" markerHeight="7" refX="9" refY="3.5" orient="auto" markerUnits="strokeWidth">
    <polygon points="0 0, 10 3.5, 0 7" fill="#7C3AED"/>
  </marker>
  <marker id="ah-indigo" markerWidth="10" markerHeight="7" refX="9" refY="3.5" orient="auto" markerUnits="strokeWidth">
    <polygon points="0 0, 10 3.5, 0 7" fill="#4F46E5"/>
  </marker>
</defs>
<text x="480.0" y="22" font-family="'Arial', 'Helvetica Neue', 'Helvetica', sans-serif" font-size="14" font-weight="700" fill="#111827" text-anchor="middle">Data Flow Diagram of the Continuous ML Monitoring Pipeline</text>
<rect x="30.0" y="49.0" width="200" height="38" rx="2" ry="2" fill="#F5F3FF" stroke="#7C3AED" stroke-width="2"/>
<text x="130" y="72.5" font-family="'Arial', 'Helvetica Neue', 'Helvetica', sans-serif" font-size="11" font-weight="700" fill="#7C3AED" text-anchor="middle">Production Transaction Source</text>
<rect x="20" y="294.0" width="175" height="32" fill="#FFF7ED" stroke="none"/>
<line x1="20" y1="294.0" x2="195" y2="294.0" stroke="#EA580C" stroke-width="1.5"/>
<line x1="20" y1="326.0" x2="195" y2="326.0" stroke="#EA580C" stroke-width="1.5"/>
<line x1="20" y1="294.0" x2="20" y2="326.0" stroke="#EA580C" stroke-width="1.5"/>
<text x="38" y="311" font-family="'Arial', 'Helvetica Neue', 'Helvetica', sans-serif" font-size="9" font-weight="700" fill="#EA580C" text-anchor="middle">D1</text>
<text x="116.5" y="311" font-family="'Arial', 'Helvetica Neue', 'Helvetica', sans-serif" font-size="10" font-weight="600" fill="#1F2937" text-anchor="middle">Historical Training Dataset</text>
<rect x="20" y="524.0" width="175" height="32" fill="#FFF7ED" stroke="none"/>
<line x1="20" y1="524.0" x2="195" y2="524.0" stroke="#EA580C" stroke-width="1.5"/>
<line x1="20" y1="556.0" x2="195" y2="556.0" stroke="#EA580C" stroke-width="1.5"/>
<line x1="20" y1="524.0" x2="20" y2="556.0" stroke="#EA580C" stroke-width="1.5"/>
<text x="38" y="541" font-family="'Arial', 'Helvetica Neue', 'Helvetica', sans-serif" font-size="9" font-weight="700" fill="#EA580C" text-anchor="middle">D2</text>
<text x="116.5" y="541" font-family="'Arial', 'Helvetica Neue', 'Helvetica', sans-serif" font-size="10" font-weight="600" fill="#1F2937" text-anchor="middle">Model State Store</text>
<rect x="750" y="804.0" width="185" height="32" fill="#FFF7ED" stroke="none"/>
<line x1="750" y1="804.0" x2="935" y2="804.0" stroke="#EA580C" stroke-width="1.5"/>
<line x1="750" y1="836.0" x2="935" y2="836.0" stroke="#EA580C" stroke-width="1.5"/>
<line x1="750" y1="804.0" x2="750" y2="836.0" stroke="#EA580C" stroke-width="1.5"/>
<text x="768" y="821" font-family="'Arial', 'Helvetica Neue', 'Helvetica', sans-serif" font-size="9" font-weight="700" fill="#EA580C" text-anchor="middle">D3</text>
<text x="851.5" y="821" font-family="'Arial', 'Helvetica Neue', 'Helvetica', sans-serif" font-size="10" font-weight="600" fill="#1F2937" text-anchor="middle">Monitoring &amp; Audit Store</text>
<rect x="280.0" y="46.0" width="160" height="44" rx="8" ry="8" fill="#EFF6FF" stroke="#2563EB" stroke-width="1.5"/>
<text x="298.0" y="61.0" font-family="'Arial', 'Helvetica Neue', 'Helvetica', sans-serif" font-size="9" font-weight="700" fill="#2563EB" text-anchor="middle">P1</text>
<text x="360" y="73" font-family="'Arial', 'Helvetica Neue', 'Helvetica', sans-serif" font-size="11" font-weight="600" fill="#1F2937" text-anchor="middle">Data Ingestion</text>
<line x1="230" y1="68" x2="280.0" y2="68" stroke="#374151" stroke-width="1.5" fill="none" marker-end="url(#ah)"/>
<rect x="248.5" y="52" width="93" height="13" rx="2" fill="#FFFFFF" stroke="none"/>
<text x="295" y="61" font-family="'Arial', 'Helvetica Neue', 'Helvetica', sans-serif" font-size="9" font-weight="400" fill="#4B5563" text-anchor="middle">Transaction Batch</text>
<rect x="500.0" y="46.0" width="160" height="44" rx="8" ry="8" fill="#EFF6FF" stroke="#2563EB" stroke-width="1.5"/>
<text x="518.0" y="61.0" font-family="'Arial', 'Helvetica Neue', 'Helvetica', sans-serif" font-size="9" font-weight="700" fill="#2563EB" text-anchor="middle">P2</text>
<text x="580" y="73" font-family="'Arial', 'Helvetica Neue', 'Helvetica', sans-serif" font-size="11" font-weight="600" fill="#1F2937" text-anchor="middle">Data Validation</text>
<line x1="440.0" y1="68" x2="500.0" y2="68" stroke="#374151" stroke-width="1.5" fill="none" marker-end="url(#ah)"/>
<rect x="443.5" y="52" width="53" height="13" rx="2" fill="#FFFFFF" stroke="none"/>
<text x="470" y="61" font-family="'Arial', 'Helvetica Neue', 'Helvetica', sans-serif" font-size="9" font-weight="400" fill="#4B5563" text-anchor="middle">Raw Batch</text>
<rect x="720.0" y="46.0" width="160" height="44" rx="8" ry="8" fill="#EFF6FF" stroke="#2563EB" stroke-width="1.5"/>
<text x="738.0" y="61.0" font-family="'Arial', 'Helvetica Neue', 'Helvetica', sans-serif" font-size="9" font-weight="700" fill="#2563EB" text-anchor="middle">P3</text>
<text x="800" y="73" font-family="'Arial', 'Helvetica Neue', 'Helvetica', sans-serif" font-size="11" font-weight="600" fill="#1F2937" text-anchor="middle">Feature Preprocessing</text>
<line x1="660.0" y1="68" x2="720.0" y2="68" stroke="#374151" stroke-width="1.5" fill="none" marker-end="url(#ah)"/>
<rect x="648.5" y="52" width="83" height="13" rx="2" fill="#FFFFFF" stroke="none"/>
<text x="690" y="61" font-family="'Arial', 'Helvetica Neue', 'Helvetica', sans-serif" font-size="9" font-weight="400" fill="#4B5563" text-anchor="middle">Validated Batch</text>
<path d="M 800,90.0 L 800,140 L 700.0,140 L 700.0,178.0" stroke="#374151" stroke-width="1.5" fill="none" marker-end="url(#ah)"/>
<rect x="738.5" y="119" width="113" height="13" rx="2" fill="#FFFFFF" stroke="none"/>
<text x="795" y="128" font-family="'Arial', 'Helvetica Neue', 'Helvetica', sans-serif" font-size="8" font-weight="400" fill="#4B5563" text-anchor="middle">Preprocessed Features</text>
<path d="M 800,140 L 530.0,140 L 530.0,320 L 540.0,320" stroke="#374151" stroke-width="1.5" fill="none" marker-end="url(#ah)"/>
<rect x="433.5" y="119" width="113" height="13" rx="2" fill="#FFFFFF" stroke="none"/>
<text x="490.0" y="128" font-family="'Arial', 'Helvetica Neue', 'Helvetica', sans-serif" font-size="8" font-weight="400" fill="#4B5563" text-anchor="middle">Preprocessed Features</text>
<rect x="525.0" y="178.0" width="190" height="44" rx="8" ry="8" fill="#EFF6FF" stroke="#2563EB" stroke-width="1.5"/>
<text x="543.0" y="193.0" font-family="'Arial', 'Helvetica Neue', 'Helvetica', sans-serif" font-size="9" font-weight="700" fill="#2563EB" text-anchor="middle">P4</text>
<text x="620" y="205" font-family="'Arial', 'Helvetica Neue', 'Helvetica', sans-serif" font-size="11" font-weight="600" fill="#1F2937" text-anchor="middle">Model Evaluation</text>
<rect x="525.0" y="298.0" width="190" height="44" rx="8" ry="8" fill="#EFF6FF" stroke="#2563EB" stroke-width="1.5"/>
<text x="543.0" y="313.0" font-family="'Arial', 'Helvetica Neue', 'Helvetica', sans-serif" font-size="9" font-weight="700" fill="#2563EB" text-anchor="middle">P5</text>
<text x="620" y="325" font-family="'Arial', 'Helvetica Neue', 'Helvetica', sans-serif" font-size="11" font-weight="600" fill="#1F2937" text-anchor="middle">Drift Detection</text>
<path d="M 195,310 L 300,310 L 300,320 L 525.0,320" stroke="#374151" stroke-width="1.5" fill="none" marker-end="url(#ah)"/>
<rect x="211.0" y="294" width="78" height="13" rx="2" fill="#FFFFFF" stroke="none"/>
<text x="250" y="303" font-family="'Arial', 'Helvetica Neue', 'Helvetica', sans-serif" font-size="8" font-weight="400" fill="#4B5563" text-anchor="middle">Reference Data</text>
<path d="M 195,540 L 350,540 L 350,200 L 525.0,200" stroke="#374151" stroke-width="1.5" fill="none" marker-end="url(#ah)"/>
<rect x="238.5" y="524" width="73" height="13" rx="2" fill="#FFFFFF" stroke="none"/>
<text x="275" y="533" font-family="'Arial', 'Helvetica Neue', 'Helvetica', sans-serif" font-size="8" font-weight="400" fill="#4B5563" text-anchor="middle">Current Model</text>
<rect x="525.0" y="418.0" width="190" height="44" rx="8" ry="8" fill="#EFF6FF" stroke="#2563EB" stroke-width="1.5"/>
<text x="543.0" y="433.0" font-family="'Arial', 'Helvetica Neue', 'Helvetica', sans-serif" font-size="9" font-weight="700" fill="#2563EB" text-anchor="middle">P6</text>
<text x="620" y="445" font-family="'Arial', 'Helvetica Neue', 'Helvetica', sans-serif" font-size="11" font-weight="600" fill="#1F2937" text-anchor="middle">Retraining Decision</text>
<path d="M 620,222.0 L 620,242.0 L 660,242.0 L 660,418.0" stroke="#374151" stroke-width="1.5" fill="none" marker-end="url(#ah)"/>
<rect x="636.0" y="226.0" width="88" height="13" rx="2" fill="#FFFFFF" stroke="none"/>
<text x="680" y="235.0" font-family="'Arial', 'Helvetica Neue', 'Helvetica', sans-serif" font-size="8" font-weight="400" fill="#4B5563" text-anchor="middle">Accuracy Metrics</text>
<path d="M 620,342.0 L 620,372.0 L 580,372.0 L 580,418.0" stroke="#374151" stroke-width="1.5" fill="none" marker-end="url(#ah)"/>
<rect x="506.0" y="356.0" width="88" height="13" rx="2" fill="#FFFFFF" stroke="none"/>
<text x="550" y="365.0" font-family="'Arial', 'Helvetica Neue', 'Helvetica', sans-serif" font-size="8" font-weight="400" fill="#4B5563" text-anchor="middle">Drift Statistics</text>
<rect x="285.0" y="516.0" width="190" height="48" rx="8" ry="8" fill="#FEF2F2" stroke="#DC2626" stroke-width="1.5"/>
<text x="303.0" y="531.0" font-family="'Arial', 'Helvetica Neue', 'Helvetica', sans-serif" font-size="9" font-weight="700" fill="#DC2626" text-anchor="middle">P7</text>
<text x="380" y="545" font-family="'Arial', 'Helvetica Neue', 'Helvetica', sans-serif" font-size="11" font-weight="600" fill="#1F2937" text-anchor="middle">Local Model Adaptation</text>
<path d="M 525.0,440 L 495.0,440 L 495.0,540 L 475.0,540" stroke="#DC2626" stroke-width="1.5" fill="none" marker-end="url(#ah-red)"/>
<rect x="461.0" y="451" width="68" height="13" rx="2" fill="#FFFFFF" stroke="none"/>
<text x="495.0" y="460" font-family="'Arial', 'Helvetica Neue', 'Helvetica', sans-serif" font-size="8" font-weight="400" fill="#DC2626" text-anchor="middle">RED: Retrain</text>
<path d="M 285.0,540 L 195,540" stroke="#EA580C" stroke-width="1.5" fill="none" marker-end="url(#ah)"/>
<rect x="228.5" y="523" width="103" height="13" rx="2" fill="#FFFFFF" stroke="none"/>
<text x="280" y="532" font-family="'Arial', 'Helvetica Neue', 'Helvetica', sans-serif" font-size="8" font-weight="400" fill="#4B5563" text-anchor="middle">Updated Local Model</text>
<rect x="525.0" y="618.0" width="190" height="44" rx="8" ry="8" fill="#EEF2FF" stroke="#4F46E5" stroke-width="1.5"/>
<text x="543.0" y="633.0" font-family="'Arial', 'Helvetica Neue', 'Helvetica', sans-serif" font-size="9" font-weight="700" fill="#4F46E5" text-anchor="middle">P8</text>
<text x="620" y="645" font-family="'Arial', 'Helvetica Neue', 'Helvetica', sans-serif" font-size="11" font-weight="600" fill="#1F2937" text-anchor="middle">Ensemble Prediction</text>
<path d="M 620,462.0 L 620,618.0" stroke="#059669" stroke-width="1.5" fill="none" marker-end="url(#ah-green)"/>
<rect x="591.0" y="498.0" width="68" height="13" rx="2" fill="#FFFFFF" stroke="none"/>
<text x="625" y="507.0" font-family="'Arial', 'Helvetica Neue', 'Helvetica', sans-serif" font-size="8" font-weight="400" fill="#059669" text-anchor="middle">GREEN/YELLOW</text>
<path d="M 380,564.0 L 380,640 L 525.0,640" stroke="#4F46E5" stroke-width="1.5" fill="none" marker-end="url(#ah-indigo)"/>
<rect x="343.5" y="580.0" width="73" height="13" rx="2" fill="#FFFFFF" stroke="none"/>
<text x="380" y="589.0" font-family="'Arial', 'Helvetica Neue', 'Helvetica', sans-serif" font-size="8" font-weight="400" fill="#4B5563" text-anchor="middle">Adapted Model</text>
<path d="M 195,556 L 250,556 L 250,650 L 525.0,650" stroke="#4F46E5" stroke-width="1.5" stroke-dasharray="5,3" fill="none" marker-end="url(#ah-indigo)"/>
<rect x="218.5" y="634" width="63" height="13" rx="2" fill="#FFFFFF" stroke="none"/>
<text x="250" y="643" font-family="'Arial', 'Helvetica Neue', 'Helvetica', sans-serif" font-size="8" font-weight="400" fill="#4B5563" text-anchor="middle">Model State</text>
<rect x="525.0" y="738.0" width="190" height="44" rx="8" ry="8" fill="#F9FAFB" stroke="#6B7280" stroke-width="1.5"/>
<text x="543.0" y="753.0" font-family="'Arial', 'Helvetica Neue', 'Helvetica', sans-serif" font-size="9" font-weight="700" fill="#6B7280" text-anchor="middle">P9</text>
<text x="620" y="765" font-family="'Arial', 'Helvetica Neue', 'Helvetica', sans-serif" font-size="11" font-weight="600" fill="#1F2937" text-anchor="middle">Monitoring &amp; Reporting</text>
<line x1="620" y1="662.0" x2="620" y2="738.0" stroke="#374151" stroke-width="1.5" fill="none" marker-end="url(#ah)"/>
<rect x="578.5" y="683.0" width="93" height="13" rx="2" fill="#FFFFFF" stroke="none"/>
<text x="625" y="692.0" font-family="'Arial', 'Helvetica Neue', 'Helvetica', sans-serif" font-size="8" font-weight="400" fill="#4B5563" text-anchor="middle">Final Predictions</text>
<path d="M 715.0,760 L 750,760 L 750,820" stroke="#374151" stroke-width="1.5" fill="none" marker-end="url(#ah)"/>
<rect x="716.0" y="744" width="98" height="13" rx="2" fill="#FFFFFF" stroke="none"/>
<text x="765.0" y="753" font-family="'Arial', 'Helvetica Neue', 'Helvetica', sans-serif" font-size="8" font-weight="400" fill="#4B5563" text-anchor="middle">Monitoring Results</text>
<rect x="530.0" y="852.0" width="180" height="36" rx="2" ry="2" fill="#F5F3FF" stroke="#7C3AED" stroke-width="2"/>
<text x="620" y="874.5" font-family="'Arial', 'Helvetica Neue', 'Helvetica', sans-serif" font-size="11" font-weight="700" fill="#7C3AED" text-anchor="middle">FastAPI → React Dashboard</text>
<path d="M 750,852 L 750,870 L 710,870" stroke="#7C3AED" stroke-width="1.5" fill="none" marker-end="url(#ah-purple)"/>
<rect x="703.5" y="851" width="93" height="13" rx="2" fill="#FFFFFF" stroke="none"/>
<text x="750" y="860" font-family="'Arial', 'Helvetica Neue', 'Helvetica', sans-serif" font-size="8" font-weight="400" fill="#4B5563" text-anchor="middle">Dashboard Payload</text>
<text x="480.0" y="908" font-family="'Arial', 'Helvetica Neue', 'Helvetica', sans-serif" font-size="9" font-weight="400" fill="#6B7280" text-anchor="middle">Fig. 2. Data flow diagram showing data movement through the continuous monitoring pipeline.</text>
</svg>
