<?xml version="1.0" encoding="UTF-8"?>
<svg xmlns="http://www.w3.org/2000/svg"
     xmlns:xlink="http://www.w3.org/1999/xlink"
     viewBox="0 0 780 1380" width="780" height="1380"
     style="background:#FFFFFF">
<defs>
  <marker id="ah" markerWidth="10" markerHeight="7" refX="9" refY="3.5" orient="auto" markerUnits="strokeWidth">
    <polygon points="0 0, 10 3.5, 0 7" fill="#374151"/>
  </marker>
  <marker id="ah-red" markerWidth="10" markerHeight="7" refX="9" refY="3.5" orient="auto" markerUnits="strokeWidth">
    <polygon points="0 0, 10 3.5, 0 7" fill="#DC2626"/>
  </marker>
  <marker id="ah-green" markerWidth="10" markerHeight="7" refX="9" refY="3.5" orient="auto" markerUnits="strokeWidth">
    <polygon points="0 0, 10 3.5, 0 7" fill="#059669"/>
  </marker>
  <marker id="ah-yellow" markerWidth="10" markerHeight="7" refX="9" refY="3.5" orient="auto" markerUnits="strokeWidth">
    <polygon points="0 0, 10 3.5, 0 7" fill="#D97706"/>
  </marker>
  <marker id="ah-purple" markerWidth="10" markerHeight="7" refX="9" refY="3.5" orient="auto" markerUnits="strokeWidth">
    <polygon points="0 0, 10 3.5, 0 7" fill="#7C3AED"/>
  </marker>
  <marker id="ah-indigo" markerWidth="10" markerHeight="7" refX="9" refY="3.5" orient="auto" markerUnits="strokeWidth">
    <polygon points="0 0, 10 3.5, 0 7" fill="#4F46E5"/>
  </marker>
</defs>
<text x="390.0" y="22" font-family="'Arial', 'Helvetica Neue', 'Helvetica', sans-serif" font-size="14" font-weight="700" fill="#111827" text-anchor="middle">Control Flow of Continuous Data Drift Monitoring</text>
<text x="390.0" y="38" font-family="'Arial', 'Helvetica Neue', 'Helvetica', sans-serif" font-size="14" font-weight="700" fill="#111827" text-anchor="middle">and Model Adaptation</text>
<rect x="340.0" y="44.0" width="100" height="32" rx="16.0" ry="16.0" fill="#F9FAFB" stroke="#6B7280" stroke-width="1.5"/>
<text x="390.0" y="64.5" font-family="'Arial', 'Helvetica Neue', 'Helvetica', sans-serif" font-size="12" font-weight="600" fill="#1F2937" text-anchor="middle">START</text>
<line x1="390.0" y1="92" x2="390.0" y2="106" stroke="#374151" stroke-width="1.5" fill="none" marker-end="url(#ah)"/>
<rect x="265.0" y="106" width="250" height="40" rx="6" ry="6" fill="#EFF6FF" stroke="#2563EB" stroke-width="1.5"/>
<text x="390.0" y="130.5" font-family="'Arial', 'Helvetica Neue', 'Helvetica', sans-serif" font-size="12" font-weight="600" fill="#1F2937" text-anchor="middle">Load / Generate Dataset</text>
<line x1="390.0" y1="146" x2="390.0" y2="160" stroke="#374151" stroke-width="1.5" fill="none" marker-end="url(#ah)"/>
<rect x="265.0" y="160" width="250" height="48" rx="6" ry="6" fill="#EFF6FF" stroke="#2563EB" stroke-width="1.5"/>
<text x="390.0" y="180.0" font-family="'Arial', 'Helvetica Neue', 'Helvetica', sans-serif" font-size="12" font-weight="600" fill="#1F2937" text-anchor="middle">Ingest &amp; Split Data</text>
<text x="390.0" y="195.0" font-family="'Arial', 'Helvetica Neue', 'Helvetica', sans-serif" font-size="10" font-weight="400" fill="#4B5563" text-anchor="middle">Train (20K) + Production Batches</text>
<line x1="390.0" y1="208" x2="390.0" y2="222" stroke="#374151" stroke-width="1.5" fill="none" marker-end="url(#ah)"/>
<rect x="265.0" y="222" width="250" height="40" rx="6" ry="6" fill="#EFF6FF" stroke="#2563EB" stroke-width="1.5"/>
<text x="390.0" y="246.5" font-family="'Arial', 'Helvetica Neue', 'Helvetica', sans-serif" font-size="12" font-weight="600" fill="#1F2937" text-anchor="middle">Preprocess Baseline Features</text>
<line x1="390.0" y1="262" x2="390.0" y2="276" stroke="#374151" stroke-width="1.5" fill="none" marker-end="url(#ah)"/>
<rect x="265.0" y="276" width="250" height="40" rx="6" ry="6" fill="#EEF2FF" stroke="#4F46E5" stroke-width="1.5"/>
<text x="390.0" y="300.5" font-family="'Arial', 'Helvetica Neue', 'Helvetica', sans-serif" font-size="12" font-weight="600" fill="#1F2937" text-anchor="middle">Train Global Model</text>
<line x1="390.0" y1="316" x2="390.0" y2="330" stroke="#374151" stroke-width="1.5" fill="none" marker-end="url(#ah)"/>
<rect x="265.0" y="330" width="250" height="40" rx="6" ry="6" fill="#F9FAFB" stroke="#6B7280" stroke-width="1.5"/>
<text x="390.0" y="354.5" font-family="'Arial', 'Helvetica Neue', 'Helvetica', sans-serif" font-size="12" font-weight="600" fill="#1F2937" text-anchor="middle">Initialize Pipeline Modules</text>
<line x1="390.0" y1="370" x2="390.0" y2="384" stroke="#374151" stroke-width="1.5" fill="none" marker-end="url(#ah)"/>
<rect x="265.0" y="384" width="250" height="40" rx="6" ry="6" fill="#FFF7ED" stroke="#EA580C" stroke-width="1.5"/>
<text x="390.0" y="408.5" font-family="'Arial', 'Helvetica Neue', 'Helvetica', sans-serif" font-size="12" font-weight="600" fill="#1F2937" text-anchor="middle">Receive Next Production Batch</text>
<line x1="390.0" y1="424" x2="390.0" y2="438" stroke="#374151" stroke-width="1.5" fill="none" marker-end="url(#ah)"/>
<polygon points="390.0,438.0 490.0,468.0 390.0,498.0 290.0,468.0" fill="#FFFBEB" stroke="#D97706" stroke-width="1.5"/>
<text x="390.0" y="472.5" font-family="'Arial', 'Helvetica Neue', 'Helvetica', sans-serif" font-size="11" font-weight="600" fill="#1F2937" text-anchor="middle">Valid?</text>
<line x1="290.0" y1="468.0" x2="210.0" y2="468.0" stroke="#DC2626" stroke-width="1.5" fill="none" marker-end="url(#ah-red)"/>
<text x="250.0" y="460.0" font-family="'Arial', 'Helvetica Neue', 'Helvetica', sans-serif" font-size="10" font-weight="700" fill="#DC2626" text-anchor="middle">NO</text>
<rect x="70.0" y="448.0" width="140" height="40" rx="6" ry="6" fill="#FEF2F2" stroke="#DC2626" stroke-width="1.5"/>
<text x="140.0" y="472.5" font-family="'Arial', 'Helvetica Neue', 'Helvetica', sans-serif" font-size="12" font-weight="600" fill="#1F2937" text-anchor="middle">Reject &amp; Log Error</text>
<path d="M 70.0,468.0 L 40.0,468.0 L 40.0,404.0 L 265.0,404.0" stroke="#6B7280" stroke-width="1.5" stroke-dasharray="5,3" fill="none" marker-end="url(#ah)"/>
<rect x="6.0" y="409.0" width="68" height="13" rx="2" fill="#FFFFFF" stroke="none"/>
<text x="40.0" y="418.0" font-family="'Arial', 'Helvetica Neue', 'Helvetica', sans-serif" font-size="8" font-weight="400" fill="#4B5563" text-anchor="middle">Skip to Next</text>
<line x1="390.0" y1="498.0" x2="390.0" y2="512" stroke="#374151" stroke-width="1.5" fill="none" marker-end="url(#ah)"/>
<text x="405.0" y="506.0" font-family="'Arial', 'Helvetica Neue', 'Helvetica', sans-serif" font-size="10" font-weight="700" fill="#059669" text-anchor="middle">YES</text>
<rect x="265.0" y="512" width="250" height="40" rx="6" ry="6" fill="#EFF6FF" stroke="#2563EB" stroke-width="1.5"/>
<text x="390.0" y="536.5" font-family="'Arial', 'Helvetica Neue', 'Helvetica', sans-serif" font-size="12" font-weight="600" fill="#1F2937" text-anchor="middle">Preprocess Batch</text>
<line x1="390.0" y1="552" x2="390.0" y2="566" stroke="#374151" stroke-width="1.5" fill="none" marker-end="url(#ah)"/>
<rect x="265.0" y="566" width="250" height="40" rx="6" ry="6" fill="#EFF6FF" stroke="#2563EB" stroke-width="1.5"/>
<text x="390.0" y="590.5" font-family="'Arial', 'Helvetica Neue', 'Helvetica', sans-serif" font-size="12" font-weight="600" fill="#1F2937" text-anchor="middle">Pre-Adaptation Evaluation</text>
<line x1="390.0" y1="606" x2="390.0" y2="620" stroke="#374151" stroke-width="1.5" fill="none" marker-end="url(#ah)"/>
<rect x="265.0" y="620" width="250" height="40" rx="6" ry="6" fill="#EFF6FF" stroke="#2563EB" stroke-width="1.5"/>
<text x="390.0" y="644.5" font-family="'Arial', 'Helvetica Neue', 'Helvetica', sans-serif" font-size="12" font-weight="600" fill="#1F2937" text-anchor="middle">Perform KS Drift Test</text>
<line x1="390.0" y1="660" x2="390.0" y2="674" stroke="#374151" stroke-width="1.5" fill="none" marker-end="url(#ah)"/>
<polygon points="390.0,674.0 510.0,709.0 390.0,744.0 270.0,709.0" fill="#FFFBEB" stroke="#D97706" stroke-width="1.5"/>
<text x="390.0" y="713.5" font-family="'Arial', 'Helvetica Neue', 'Helvetica', sans-serif" font-size="11" font-weight="600" fill="#1F2937" text-anchor="middle">Decision Engine</text>
<line x1="270.0" y1="709.0" x2="250.0" y2="709.0" stroke="#059669" stroke-width="1.5" fill="none" marker-end="url(#ah-green)"/>
<rect x="140.0" y="689.0" width="110" height="40" rx="6" ry="6" fill="#ECFDF5" stroke="#059669" stroke-width="1.5"/>
<text x="195.0" y="713.5" font-family="'Arial', 'Helvetica Neue', 'Helvetica', sans-serif" font-size="12" font-weight="600" fill="#1F2937" text-anchor="middle">Continue</text>
<text x="215.0" y="684.0" font-family="'Arial', 'Helvetica Neue', 'Helvetica', sans-serif" font-size="9" font-weight="700" fill="#059669" text-anchor="middle">GREEN</text>
<line x1="510.0" y1="709.0" x2="530.0" y2="709.0" stroke="#D97706" stroke-width="1.5" fill="none" marker-end="url(#ah-yellow)"/>
<rect x="530.0" y="689.0" width="110" height="40" rx="6" ry="6" fill="#FFFBEB" stroke="#D97706" stroke-width="1.5"/>
<text x="585.0" y="713.5" font-family="'Arial', 'Helvetica Neue', 'Helvetica', sans-serif" font-size="12" font-weight="600" fill="#1F2937" text-anchor="middle">Log Warning</text>
<text x="565.0" y="684.0" font-family="'Arial', 'Helvetica Neue', 'Helvetica', sans-serif" font-size="9" font-weight="700" fill="#D97706" text-anchor="middle">YELLOW</text>
<line x1="390.0" y1="744.0" x2="390.0" y2="758.0" stroke="#DC2626" stroke-width="1.5" fill="none" marker-end="url(#ah-red)"/>
<text x="410.0" y="752.0" font-family="'Arial', 'Helvetica Neue', 'Helvetica', sans-serif" font-size="10" font-weight="700" fill="#DC2626" text-anchor="middle">RED</text>
<rect x="265.0" y="758.0" width="250" height="40" rx="6" ry="6" fill="#FEF2F2" stroke="#DC2626" stroke-width="1.5"/>
<text x="390.0" y="782.5" font-family="'Arial', 'Helvetica Neue', 'Helvetica', sans-serif" font-size="12" font-weight="600" fill="#1F2937" text-anchor="middle">Retrain Local Model</text>
<line x1="390.0" y1="798.0" x2="390.0" y2="812.0" stroke="#374151" stroke-width="1.5" fill="none" marker-end="url(#ah)"/>
<rect x="265.0" y="812.0" width="250" height="40" rx="6" ry="6" fill="#EEF2FF" stroke="#4F46E5" stroke-width="1.5"/>
<text x="390.0" y="836.5" font-family="'Arial', 'Helvetica Neue', 'Helvetica', sans-serif" font-size="12" font-weight="600" fill="#1F2937" text-anchor="middle">Update Global–Local Ensemble</text>
<path d="M 195.0,729.0 L 195.0,886.0 L 265.0,886.0" stroke="#059669" stroke-width="1" stroke-dasharray="5,3" fill="none"/>
<path d="M 585.0,729.0 L 585.0,886.0 L 515.0,886.0" stroke="#D97706" stroke-width="1" stroke-dasharray="5,3" fill="none"/>
<line x1="390.0" y1="852.0" x2="390.0" y2="866.0" stroke="#374151" stroke-width="1.5" fill="none" marker-end="url(#ah)"/>
<rect x="265.0" y="866.0" width="250" height="40" rx="6" ry="6" fill="#EFF6FF" stroke="#2563EB" stroke-width="1.5"/>
<text x="390.0" y="890.5" font-family="'Arial', 'Helvetica Neue', 'Helvetica', sans-serif" font-size="12" font-weight="600" fill="#1F2937" text-anchor="middle">Post-Adaptation Evaluation</text>
<line x1="390.0" y1="906.0" x2="390.0" y2="920.0" stroke="#374151" stroke-width="1.5" fill="none" marker-end="url(#ah)"/>
<rect x="265.0" y="920.0" width="250" height="40" rx="6" ry="6" fill="#F9FAFB" stroke="#6B7280" stroke-width="1.5"/>
<text x="390.0" y="944.5" font-family="'Arial', 'Helvetica Neue', 'Helvetica', sans-serif" font-size="12" font-weight="600" fill="#1F2937" text-anchor="middle">Record Monitoring Results</text>
<line x1="390.0" y1="960.0" x2="390.0" y2="974.0" stroke="#374151" stroke-width="1.5" fill="none" marker-end="url(#ah)"/>
<polygon points="390.0,974.0 490.0,1004.0 390.0,1034.0 290.0,1004.0" fill="#FFFBEB" stroke="#D97706" stroke-width="1.5"/>
<text x="390.0" y="1008.5" font-family="'Arial', 'Helvetica Neue', 'Helvetica', sans-serif" font-size="11" font-weight="600" fill="#1F2937" text-anchor="middle">More Batches?</text>
<text x="508.0" y="1002.0" font-family="'Arial', 'Helvetica Neue', 'Helvetica', sans-serif" font-size="10" font-weight="700" fill="#059669" text-anchor="middle">YES</text>
<path d="M 490.0,1004.0 L 740,1004.0 L 740,404.0 L 515.0,404.0" stroke="#059669" stroke-width="1.5" fill="none" marker-end="url(#ah)"/>
<line x1="390.0" y1="1034.0" x2="390.0" y2="1048.0" stroke="#DC2626" stroke-width="1.5" fill="none" marker-end="url(#ah-red)"/>
<text x="370.0" y="1042.0" font-family="'Arial', 'Helvetica Neue', 'Helvetica', sans-serif" font-size="10" font-weight="700" fill="#DC2626" text-anchor="middle">NO</text>
<rect x="340.0" y="1048.0" width="100" height="32" rx="16.0" ry="16.0" fill="#F9FAFB" stroke="#6B7280" stroke-width="1.5"/>
<text x="390.0" y="1068.5" font-family="'Arial', 'Helvetica Neue', 'Helvetica', sans-serif" font-size="12" font-weight="600" fill="#1F2937" text-anchor="middle">END</text>
<text x="390.0" y="1112.0" font-family="'Arial', 'Helvetica Neue', 'Helvetica', sans-serif" font-size="9" font-weight="400" fill="#6B7280" text-anchor="middle">Fig. 3. Control flow diagram of the continuous batch monitoring and adaptive retraining loop.</text>
</svg>
